<?xml version="1.0" standalone="no"?><!DOCTYPE svg PUBLIC "-//W3C//DTD SVG 1.1//EN" "http://www.w3.org/Graphics/SVG/1.1/DTD/svg11.dtd"><svg t="1550651834660" class="icon" style="" viewBox="0 0 1024 1024" version="1.1" xmlns="http://www.w3.org/2000/svg" p-id="5773" xmlns:xlink="http://www.w3.org/1999/xlink" width="200" height="200"><defs><style type="text/css"></style></defs><path d="M960 128 64 128C51.2 128 42.666667 136.533333 42.666667 149.333333l0 597.333333c0 12.8 8.533333 21.333333 21.333333 21.333333l170.666667 0c12.8 0 21.333333-8.533333 21.333333-21.333333s-8.533333-21.333333-21.333333-21.333333L85.333333 725.333333 85.333333 170.666667l853.333333 0 0 554.666667-149.333333 0c-12.8 0-21.333333 8.533333-21.333333 21.333333s8.533333 21.333333 21.333333 21.333333l170.666667 0c12.8 0 21.333333-8.533333 21.333333-21.333333L981.333333 149.333333C981.333333 136.533333 972.8 128 960 128zM785.066667 859.733333l-256-298.666667 0 0C524.8 556.8 518.4 554.666667 512 554.666667c-6.4 0-12.8 2.133333-17.066667 8.533333l0 0-256 298.666667 0 0C236.8 864 234.666667 870.4 234.666667 874.666667c0 12.8 8.533333 21.333333 21.333333 21.333333l512 0c12.8 0 21.333333-8.533333 21.333333-21.333333C789.333333 870.4 787.2 864 785.066667 859.733333L785.066667 859.733333zM302.933333 853.333333 512 608 721.066667 853.333333 302.933333 853.333333z" p-id="5774" fill="#d9d9d9"></path></svg>